<svg xmlns="http://www.w3.org/2000/svg" viewBox="0 0 512 512" role="img" aria-labelledby="title">
  <title>Vanity Stock App Icon</title>
  <defs>
    <linearGradient id="g" x1="10%" y1="10%" x2="90%" y2="90%">
      <stop offset="0%" stop-color="#f7d7c8"/>
      <stop offset="100%" stop-color="#cc7b64"/>
    </linearGradient>
  </defs>
  <rect width="512" height="512" rx="120" fill="#f7f1ea"/>
  <circle cx="256" cy="256" r="184" fill="#fff8f3"/>
  <path fill="url(#g)" d="M162 154h188c22 0 40 18 40 40v134c0 22-18 40-40 40H162c-22 0-40-18-40-40V194c0-22 18-40 40-40Z"/>
  <path fill="#784f43" d="M208 110h96c15 0 28 13 28 28v20H180v-20c0-15 13-28 28-28Zm-20 120h136v28H188zm0 56h96v28h-96z"/>
</svg>
