<svg xmlns="http://www.w3.org/2000/svg" viewBox="0 0 128 128" role="img" aria-labelledby="title">
  <title>Vanity Stock</title>
  <defs>
    <linearGradient id="g" x1="0%" y1="0%" x2="100%" y2="100%">
      <stop offset="0%" stop-color="#f9ded0"/>
      <stop offset="100%" stop-color="#d4846f"/>
    </linearGradient>
  </defs>
  <rect width="128" height="128" rx="32" fill="#f7f1ea"/>
  <path fill="url(#g)" d="M37 33h54c6 0 11 5 11 11v40c0 6-5 11-11 11H37c-6 0-11-5-11-11V44c0-6 5-11 11-11Z"/>
  <path fill="#7a5045" d="M50 22h28c4 0 7 3 7 7v7H43v-7c0-4 3-7 7-7Zm-5 38h38v8H45zm0 15h29v8H45z"/>
</svg>
